# xmcd
#
# Track frame offsets:
#	150
#	16857
#	29519
#	42220
#	62955
#	78657
#	96986
#	118191
#	137289
#	154057
#	174540
#	198431
#	212561
#	228834
#	247892
#	261648
#	285456
#	307471
#	333066
#
# Disc length: 4781
#
# Revision: 1
# Processed by: cddbd v1.5.1PL0 Copyright (c) Steve Scherf et al.
# Submitted via: FreeRIP 2.40 
# Normalized: r0:TDELIM( - )
#
DISCID=0e12ab13
DTITLE=Wavey D - Huge Tuneage  - 6
DYEAR=2004
DGENRE=House
TTITLE0=Higher Place - Peyton
TTITLE1=Easy - Groove Armada
TTITLE2=I can See You Dancing - The Beginnerz
TTITLE3=Earth Wind and peas - Skullduggery
TTITLE4=From Antwerp With Love - Tom De Neef
TTITLE5=Don't Hold Back - Disco Darlings
TTITLE6=Fired up (vocal) - Funky Green Dogs
TTITLE7=Shined On You - Praise Cats
TTITLE8=Better Day - Demetrious
TTITLE9=Someday - Hoxton Whores
TTITLE10=I Like - StoneBridge
TTITLE11=Give Me Love - Cerrone
TTITLE12=Think About Me - Artful Dodger
TTITLE13=Kylie Loves Garlands - Hu-E
TTITLE14=The Force - 11th Dimension
TTITLE15=Cheeky Fucker - CHeeky Fucker
TTITLE16=I don't Understand It - Ultra Nate
TTITLE17=Lola's Chic - Wavey D
TTITLE18=Into The Sun - Weekend PLayers
EXTD=
EXTT0=
EXTT1=
EXTT2=
EXTT3=
EXTT4=
EXTT5=
EXTT6=
EXTT7=
EXTT8=
EXTT9=
EXTT10=
EXTT11=
EXTT12=
EXTT13=
EXTT14=
EXTT15=
EXTT16=
EXTT17=
EXTT18=
PLAYORDER=
